<svg width="1200" height="760" viewBox="0 0 1200 760" fill="none" xmlns="http://www.w3.org/2000/svg">
  <rect width="1200" height="760" rx="32" fill="#07111F"/>
  <rect x="32" y="32" width="1136" height="696" rx="28" fill="url(#paint0_linear)"/>
  <rect x="96" y="96" width="350" height="568" rx="36" fill="#0A1627" stroke="#334155"/>
  <rect x="120" y="136" width="302" height="74" rx="20" fill="#12324B"/>
  <rect x="120" y="238" width="302" height="150" rx="28" fill="#0F2237"/>
  <rect x="120" y="412" width="144" height="220" rx="24" fill="#12324B"/>
  <rect x="278" y="412" width="144" height="220" rx="24" fill="#1D4ED8" fill-opacity="0.34"/>
  <rect x="506" y="96" width="598" height="104" rx="24" fill="#0A1627" stroke="#334155"/>
  <rect x="506" y="228" width="280" height="220" rx="28" fill="#0A1627" stroke="#334155"/>
  <rect x="824" y="228" width="280" height="220" rx="28" fill="#0A1627" stroke="#334155"/>
  <rect x="506" y="476" width="598" height="156" rx="28" fill="#0A1627" stroke="#334155"/>
  <text x="120" y="120" fill="#E2E8F0" font-family="Arial, sans-serif" font-size="28" font-weight="700">ScrapCollector Platform Preview</text>
  <text x="120" y="174" fill="#7DD3FC" font-family="Arial, sans-serif" font-size="18">Mobile requests · Admin dashboard · RBAC thinking</text>
  <defs>
    <linearGradient id="paint0_linear" x1="84" y1="72" x2="1088" y2="700" gradientUnits="userSpaceOnUse">
      <stop stop-color="#0B1B31"/>
      <stop offset="1" stop-color="#10394B"/>
    </linearGradient>
  </defs>
</svg>
